<svg id="Laag_1" data-name="Laag 1" xmlns="http://www.w3.org/2000/svg" xmlns:xlink="http://www.w3.org/1999/xlink" viewBox="0 0 846.52 332.01"><defs><style>.cls-1{fill:url(#Naamloos_verloop_22);}.cls-2{fill:#fff;}.cls-3{font-size:76px;}.cls-3,.cls-5{font-family:CenturyGothic-Bold, Century Gothic;font-weight:700;}.cls-4{fill:url(#Naamloos_verloop_22-2);}.cls-5{font-size:48px;}.cls-6{fill:url(#Naamloos_verloop_22-10);}</style><linearGradient id="Naamloos_verloop_22" x1="212.48" y1="622.99" x2="490.85" y2="570.71" gradientUnits="userSpaceOnUse"><stop offset="0" stop-color="blue"/><stop offset="0.04" stop-color="#0600ff"/><stop offset="0.13" stop-color="#0b00ff"/><stop offset="0.26" stop-color="#1a00ff"/><stop offset="0.39" stop-color="#30f"/><stop offset="0.53" stop-color="#5600ff"/><stop offset="0.68" stop-color="#8300ff"/><stop offset="0.83" stop-color="#ba00ff"/><stop offset="0.99" stop-color="#f900ff"/><stop offset="1" stop-color="#f0f"/></linearGradient><linearGradient id="Naamloos_verloop_22-2" x1="586.68" y1="519.02" x2="945.79" y2="519.02" xlink:href="#Naamloos_verloop_22"/><linearGradient id="Naamloos_verloop_22-10" x1="580.77" y1="635.18" x2="1050.84" y2="635.18" xlink:href="#Naamloos_verloop_22"/></defs><path class="cls-1" d="M207.27,538.14s7.46-89.5,98.81-78.31,184.42-1,184.42-1V498.5H422s-25.44,197.3,14.64,184.19,40.09-33.62,40.09-33.62l13.82-1.29s-8.23,90.78-60.43,83.32S363,678.9,370.4,656.53s13.06-158.48,13.06-158.48l-65.26,1.87S322,735.7,261.38,731.54s-21.48-62-21.48-62,41-48.48,44.74-85.77,7.46-85.76,7.46-85.76-65.25-5.59-74.58,41S207.27,538.14,207.27,538.14Z" transform="translate(-207.27 -399.58)"/><ellipse class="cls-2" cx="109.38" cy="42.88" rx="28.4" ry="42.38"/><path d="M316.65,400.58c15.38,0,27.9,18.79,27.9,41.88s-12.52,41.88-27.9,41.88-27.9-18.78-27.9-41.88,12.52-41.88,27.9-41.88m0-1c-16,0-28.9,19.2-28.9,42.88s12.94,42.88,28.9,42.88,28.9-19.19,28.9-42.88-12.94-42.88-28.9-42.88Z" transform="translate(-207.27 -399.58)"/><ellipse cx="109.38" cy="48.47" rx="14.92" ry="21.44"/><path class="cls-2" d="M413.6,484.84c-15.66,0-28.4-19-28.4-42.38s12.74-42.38,28.4-42.38,28.4,19,28.4,42.38S429.26,484.84,413.6,484.84Z" transform="translate(-207.27 -399.58)"/><path d="M413.6,400.58c15.38,0,27.9,18.79,27.9,41.88S429,484.34,413.6,484.34s-27.9-18.78-27.9-41.88,12.51-41.88,27.9-41.88m0-1c-16,0-28.9,19.2-28.9,42.88s12.94,42.88,28.9,42.88,28.9-19.19,28.9-42.88-12.94-42.88-28.9-42.88Z" transform="translate(-207.27 -399.58)"/><ellipse cx="206.33" cy="48.47" rx="14.92" ry="21.44"/><text class="cls-3" transform="translate(377.34 146.9)">MathArea</text><path class="cls-4" d="M596.14,491.9h10.12L618.91,530l12.77-38.07H641.8L651,546.48H640.91L635.06,512l-11.6,34.47H614.3L602.81,512l-6,34.47H586.68Z" transform="translate(-207.27 -399.58)"/><path class="cls-4" d="M687.92,506.11h10.13v40.37H687.92v-4.26a19.9,19.9,0,0,1-5.95,4.06,16.65,16.65,0,0,1-6.47,1.24A18,18,0,0,1,662,541.46a21.21,21.21,0,0,1-5.71-15.09q0-9.35,5.53-15.32a17.57,17.57,0,0,1,13.42-6,17.17,17.17,0,0,1,6.82,1.37,18.81,18.81,0,0,1,5.89,4.12Zm-10.65,8.31a10.28,10.28,0,0,0-7.81,3.32,13.28,13.28,0,0,0,.06,17.13,10.25,10.25,0,0,0,7.79,3.38,10.45,10.45,0,0,0,7.91-3.32,12.14,12.14,0,0,0,3.14-8.71,11.77,11.77,0,0,0-3.14-8.53A10.57,10.57,0,0,0,677.27,514.42Z" transform="translate(-207.27 -399.58)"/><path class="cls-4" d="M709.52,491.23h10.13v14.88h6v8.72h-6v31.65H709.52V514.83h-5.2v-8.72h5.2Z" transform="translate(-207.27 -399.58)"/><path class="cls-4" d="M731.11,490.52h10.06v19.67a22.85,22.85,0,0,1,6-3.84,15.44,15.44,0,0,1,6.08-1.28,13.7,13.7,0,0,1,10.13,4.16q3.52,3.6,3.53,10.57v26.68h-10v-17.7a44.06,44.06,0,0,0-.67-9.5,6.72,6.72,0,0,0-2.28-3.71,6.46,6.46,0,0,0-4-1.22,7.51,7.51,0,0,0-5.29,2,10.78,10.78,0,0,0-3.06,5.57,45.56,45.56,0,0,0-.45,8.31v16.21H731.11Z" transform="translate(-207.27 -399.58)"/><path class="cls-4" d="M794.45,491.9H805l21,54.58H815.19l-4.28-11.24H788.64l-4.44,11.24H773.4Zm5.34,14.47-7.33,18.74h14.61Z" transform="translate(-207.27 -399.58)"/><path class="cls-4" d="M830.53,506.11h8.68v5.08a10.86,10.86,0,0,1,3.75-4.56,9,9,0,0,1,5.12-1.56,9.51,9.51,0,0,1,4.12,1l-3.15,8.72a7.05,7.05,0,0,0-2.93-.89q-2.34,0-4,2.89t-1.61,11.36l0,2v16.32H830.53Z" transform="translate(-207.27 -399.58)"/><path class="cls-4" d="M897.66,529.23H865.12a10.85,10.85,0,0,0,3.76,6.85,11.85,11.85,0,0,0,7.81,2.54,13.53,13.53,0,0,0,9.76-4l8.54,4a20.1,20.1,0,0,1-7.65,6.7,23.82,23.82,0,0,1-10.57,2.17q-9.51,0-15.48-6a20.4,20.4,0,0,1-6-15,21,21,0,0,1,6-15.34,20,20,0,0,1,14.93-6.11q9.54,0,15.51,6.11t6,16.12Zm-10.13-8a10.17,10.17,0,0,0-4-5.49,11.47,11.47,0,0,0-6.86-2.12,12.15,12.15,0,0,0-7.43,2.38,13.2,13.2,0,0,0-3.72,5.23Z" transform="translate(-207.27 -399.58)"/><path class="cls-4" d="M935.66,506.11h10.13v40.37H935.66v-4.26a19.9,19.9,0,0,1-5.95,4.06,16.61,16.61,0,0,1-6.47,1.24,18,18,0,0,1-13.53-6.06,21.21,21.21,0,0,1-5.7-15.09q0-9.35,5.52-15.32a17.57,17.57,0,0,1,13.42-6,17.17,17.17,0,0,1,6.82,1.37,18.7,18.7,0,0,1,5.89,4.12ZM925,514.42a10.24,10.24,0,0,0-7.8,3.32,13.27,13.27,0,0,0,0,17.13,10.27,10.27,0,0,0,7.79,3.38,10.43,10.43,0,0,0,7.91-3.32,12.15,12.15,0,0,0,3.15-8.71,11.78,11.78,0,0,0-3.15-8.53A10.54,10.54,0,0,0,925,514.42Z" transform="translate(-207.27 -399.58)"/><text class="cls-5" transform="translate(372.34 248.93)">All you need is math</text><path class="cls-6" d="M594.06,614h6.66L614,648.52h-6.82l-2.7-7.11H590.39l-2.8,7.11h-6.82Zm3.37,9.14L592.8,635H602Z" transform="translate(-207.27 -399.58)"/><path class="cls-6" d="M617.65,613.17H624v35.35h-6.39Z" transform="translate(-207.27 -399.58)"/><path class="cls-6" d="M629.15,613.17h6.4v35.35h-6.4Z" transform="translate(-207.27 -399.58)"/><path class="cls-6" d="M652,623h6.54l6.63,16,7.31-16H679l-16,34.82h-6.61l5.25-11.23Z" transform="translate(-207.27 -399.58)"/><path class="cls-6" d="M694.61,622.36a13.56,13.56,0,0,1,6.79,1.8,13.23,13.23,0,0,1,6.74,11.58,13.33,13.33,0,0,1-1.8,6.75,12.86,12.86,0,0,1-4.88,4.91,13.5,13.5,0,0,1-6.82,1.77,12.74,12.74,0,0,1-9.37-3.9,13.53,13.53,0,0,1,.51-19.44A12.81,12.81,0,0,1,694.61,622.36Zm.11,6a6.58,6.58,0,0,0-5,2.08,7.37,7.37,0,0,0-2,5.31,7.51,7.51,0,0,0,2,5.39,7,7,0,0,0,10,0,8.23,8.23,0,0,0,0-10.7A6.66,6.66,0,0,0,694.72,628.38Z" transform="translate(-207.27 -399.58)"/><path class="cls-6" d="M713.34,623h6.47V635.3a17,17,0,0,0,.49,5,4.37,4.37,0,0,0,1.59,2.17,4.57,4.57,0,0,0,2.69.77,4.75,4.75,0,0,0,2.71-.76,4.47,4.47,0,0,0,1.66-2.24,17.06,17.06,0,0,0,.4-4.71V623h6.4v10.8q0,6.67-1.06,9.14a10,10,0,0,1-3.79,4.61,11.66,11.66,0,0,1-6.38,1.6,11.27,11.27,0,0,1-6.78-1.87,9.9,9.9,0,0,1-3.65-5.23q-.75-2.33-.75-8.44Z" transform="translate(-207.27 -399.58)"/><path class="cls-6" d="M755.6,623H762v2.61a15.14,15.14,0,0,1,3.94-2.55,9.5,9.5,0,0,1,3.62-.72A8.73,8.73,0,0,1,776,625c1.48,1.5,2.23,3.72,2.23,6.65v16.86h-6.33V637.35a28.42,28.42,0,0,0-.41-6.06,4.17,4.17,0,0,0-1.43-2.29,4,4,0,0,0-2.51-.78,4.68,4.68,0,0,0-3.33,1.3,6.89,6.89,0,0,0-1.93,3.59,28.78,28.78,0,0,0-.28,5.18v10.23h-6.4Z" transform="translate(-207.27 -399.58)"/><path class="cls-6" d="M810,637.62H789.4a6.84,6.84,0,0,0,2.37,4.32,7.49,7.49,0,0,0,4.94,1.61,8.53,8.53,0,0,0,6.16-2.51l5.39,2.53a12.6,12.6,0,0,1-4.83,4.23,15.14,15.14,0,0,1-6.68,1.37,13.21,13.21,0,0,1-9.77-3.78,12.92,12.92,0,0,1-3.77-9.48,13.34,13.34,0,0,1,3.76-9.7,12.63,12.63,0,0,1,9.43-3.85,13.11,13.11,0,0,1,9.8,3.85A13.94,13.94,0,0,1,810,636.4Zm-6.4-5a6.38,6.38,0,0,0-2.5-3.47,7.25,7.25,0,0,0-4.33-1.34,7.69,7.69,0,0,0-4.7,1.5,8.45,8.45,0,0,0-2.34,3.31Z" transform="translate(-207.27 -399.58)"/><path class="cls-6" d="M840.68,637.62H820.12a6.85,6.85,0,0,0,2.38,4.32,7.46,7.46,0,0,0,4.93,1.61A8.54,8.54,0,0,0,833.6,641l5.39,2.53a12.6,12.6,0,0,1-4.83,4.23,15.14,15.14,0,0,1-6.68,1.37,13.19,13.19,0,0,1-9.77-3.78,12.89,12.89,0,0,1-3.78-9.48,13.35,13.35,0,0,1,3.77-9.7,12.61,12.61,0,0,1,9.43-3.85,13.11,13.11,0,0,1,9.8,3.85,14,14,0,0,1,3.77,10.19Zm-6.4-5a6.43,6.43,0,0,0-2.5-3.47,7.27,7.27,0,0,0-4.33-1.34,7.67,7.67,0,0,0-4.7,1.5,8.46,8.46,0,0,0-2.35,3.31Z" transform="translate(-207.27 -399.58)"/><path class="cls-6" d="M864.68,613.17h6.4v35.35h-6.4v-2.7a12.62,12.62,0,0,1-3.76,2.57,10.6,10.6,0,0,1-4.09.78,11.35,11.35,0,0,1-8.54-3.83,13.38,13.38,0,0,1-3.61-9.53,13.74,13.74,0,0,1,3.49-9.68,11.14,11.14,0,0,1,8.48-3.77,10.7,10.7,0,0,1,4.3.87,11.51,11.51,0,0,1,3.73,2.6ZM858,628.27a6.45,6.45,0,0,0-4.93,2.09,8.38,8.38,0,0,0,0,10.82,6.47,6.47,0,0,0,4.91,2.13,6.58,6.58,0,0,0,5-2.1,7.62,7.62,0,0,0,2-5.49,7.41,7.41,0,0,0-2-5.39A6.65,6.65,0,0,0,858,628.27Z" transform="translate(-207.27 -399.58)"/><path class="cls-6" d="M893.47,612.52a3.94,3.94,0,0,1,2.89,1.21,4.08,4.08,0,0,1,1.2,3,4,4,0,0,1-1.19,2.92,4,4,0,0,1-5.76,0,4.08,4.08,0,0,1-1.21-3,4.06,4.06,0,0,1,4.07-4.07Zm-3.2,10.5h6.4v25.5h-6.4Z" transform="translate(-207.27 -399.58)"/><path class="cls-6" d="M918.09,626.58l-4,4q-2.42-2.38-4.38-2.39a2.74,2.74,0,0,0-1.69.46,1.35,1.35,0,0,0-.61,1.13,1.38,1.38,0,0,0,.39,1,6.94,6.94,0,0,0,1.91,1.19l2.34,1.17a14,14,0,0,1,5.09,3.72,7.77,7.77,0,0,1-1.12,10.13,9.56,9.56,0,0,1-6.69,2.27,10.6,10.6,0,0,1-8.9-4.36l3.93-4.29a8.85,8.85,0,0,0,2.64,2.12,5.83,5.83,0,0,0,2.68.81,3.16,3.16,0,0,0,2-.61,1.75,1.75,0,0,0,.78-1.4c0-1-.93-2-2.79-2.89l-2.16-1.07q-6.18-3.12-6.19-7.81a6.78,6.78,0,0,1,2.34-5.17,8.45,8.45,0,0,1,6-2.14,10.33,10.33,0,0,1,8.39,4.22Z" transform="translate(-207.27 -399.58)"/><path class="cls-6" d="M937,623h6.4V626a10.4,10.4,0,0,1,8-3.59,8.16,8.16,0,0,1,4.32,1.17,8.45,8.45,0,0,1,3.09,3.42,10.4,10.4,0,0,1,3.74-3.42,10.25,10.25,0,0,1,4.85-1.17,9,9,0,0,1,4.78,1.26,7.33,7.33,0,0,1,3,3.31,17.71,17.71,0,0,1,.9,6.63v15h-6.44V635.58q0-4.33-1.08-5.87a3.69,3.69,0,0,0-3.24-1.54,4.89,4.89,0,0,0-2.94.94,5.55,5.55,0,0,0-1.93,2.59,16.16,16.16,0,0,0-.63,5.31v11.51h-6.45V636.16a17.61,17.61,0,0,0-.5-4.95,4.52,4.52,0,0,0-1.52-2.29,4,4,0,0,0-2.44-.75,4.8,4.8,0,0,0-2.9,1,5.64,5.64,0,0,0-2,2.66,16.18,16.18,0,0,0-.65,5.39v11.35H937Z" transform="translate(-207.27 -399.58)"/><path class="cls-6" d="M1001,623h6.39v25.5H1001v-2.7a12.74,12.74,0,0,1-3.76,2.57,10.6,10.6,0,0,1-4.09.78,11.35,11.35,0,0,1-8.54-3.83,13.34,13.34,0,0,1-3.61-9.53,13.74,13.74,0,0,1,3.49-9.68,11.14,11.14,0,0,1,8.48-3.77,10.7,10.7,0,0,1,4.3.87,11.62,11.62,0,0,1,3.73,2.6Zm-6.73,5.25a6.45,6.45,0,0,0-4.93,2.09,8.38,8.38,0,0,0,0,10.82,6.47,6.47,0,0,0,4.91,2.13,6.58,6.58,0,0,0,5-2.1,7.67,7.67,0,0,0,2-5.49,7.45,7.45,0,0,0-2-5.39A6.65,6.65,0,0,0,994.24,628.27Z" transform="translate(-207.27 -399.58)"/><path class="cls-6" d="M1014.61,613.62H1021V623h3.8v5.5H1021v20h-6.39v-20h-3.28V623h3.28Z" transform="translate(-207.27 -399.58)"/><path class="cls-6" d="M1028.25,613.17h6.35v12.42a14.87,14.87,0,0,1,3.77-2.42,9.75,9.75,0,0,1,3.85-.81,8.63,8.63,0,0,1,6.39,2.62q2.23,2.28,2.23,6.68v16.86h-6.3V637.34a26.79,26.79,0,0,0-.43-6,4.2,4.2,0,0,0-1.44-2.35,4.08,4.08,0,0,0-2.52-.77,4.76,4.76,0,0,0-3.34,1.29,6.83,6.83,0,0,0-1.93,3.51,29,29,0,0,0-.28,5.25v10.25h-6.35Z" transform="translate(-207.27 -399.58)"/></svg>